<?xml version="1.0" encoding="UTF-8"?> <svg xmlns="http://www.w3.org/2000/svg" xmlns:xlink="http://www.w3.org/1999/xlink" id="Layer_1" version="1.1" width="286" height="74" viewBox="0 0 390 190"><defs><style> .st0 { fill: #c02656; } </style></defs><path class="st0" d="M381.8,25.2c-1.5-6.3-5.1-11.9-10.1-16-11.8-9.7-28.2-8.4-39.6,1-4.7,3.9-8.7,8.5-11.8,13.8-1.6,2.8-3,5.7-4.2,8.6l2.8,7.6c3.2-13.4,13.9-26.7,28.3-27.9,6.8-.5,13.6,2,18.4,6.8,13.9,14.2,6.7,38.7-.4,54.3l-26.1,57.4L294.1,7.8h-16.4l20.2,55.5c1.3,3.5,1.1,7.3-.4,10.7l-25.8,56.8S233.5,26.3,228.6,13.1c-.6-1.7-1.6-3.3-2.8-4.6-5.3-5.4-13.7-4.6-19.7-1.8-13.4,6.2-19.6,19.1-24.4,32.2-2.4,6.6-4.9,13.2-7.3,19.8-2.5,6.7-4.9,13.4-7.4,20.1-5.6,15.3-10.6,30.6-21.1,43.3-7.2,8.7-16.2,15.9-26.5,20.5-14.4,6.4-31.6,8.4-46.8,3.9-10.5-3.1-19.9-9.4-27.4-17.4,0-.1-.2-.2-.3-.3-10.3-11.3-16.6-26-18.7-41.1-2.2-15.9.6-32.6,8.5-46.7,7.1-12.6,18.3-22.7,31.9-27.8h.2c12.7-4.8,27.8-5.4,40.6-.5,13.6,5.1,25,16.9,27.4,31.5.8,4.6.6,9.3-.8,13.8l2.5,3,16.3-10.4c-9-26.4-31.6-44.8-59.5-47.5C64,0,33.8,12.9,17.8,37.9c-8.4,13.1-12.6,28.6-12.5,44.2,0,14.8,4,29.2,12.2,41.6,5.3,8,12.1,15,20,20.3,12.8,8.6,28.5,13,44,12.3,13.7-.6,27.1-3.5,39.6-9.4,11.9-5.7,23.1-14,30.1-25.3h0l-4.6,12.5c-5.2,13.3-8.3,30.5-.6,43.5,6.8,11.3,22.7,13,32.5,4.7,5.4-4.6,8.1-11.4,9.8-18.3,4.9-19.9-4.9-42.3-15.3-58.9,9.9,1.6,26.2-.2,39.2-11l-3.2-9.1c-10.9,11.7-26,15.5-35.8,15.3l2.3-6.3c16.9-12,35.4-38.4,45.8-56.2l41.4,113.2h5.3l34.4-75.7,27.7,75.7h5.3l37.3-82.2c5.6-13.4,12.7-28.8,9.1-43.6h0ZM183.7,163.2c-1.7,9.1-9,21.2-19.5,20.8-7.6-.2-11-7-11.5-13.7-.5-6.8.8-13.8,2.8-20.5l14.3-39.9c11.8,17.7,16.7,39.1,14,53.2h-.1ZM211.4,45.3c-8.6,15.9-19.9,30.3-33.4,42.3,0,0-.2,0-.2.2.3-1.3,3.5-15.3,7.6-30.4,3.8-13.8,8.3-28.5,12.1-35.2,9.3-16.7,18.8-13.8,19.8-13.3,12.2,5.8-1.9,29.2-5.9,36.4h0Z"></path></svg> 