<?xml version="1.0" encoding="UTF-8" standalone="no"?>
<svg xmlns="http://www.w3.org/2000/svg" xml:space="preserve" width="720" height="91.86" overflow="visible">
  <switch>
    <g>
      <path d="M706.171 68.778V54.034c-1.74-.822-4.689-2.23-6.411-3.113l-14.195 14.652.092.094c2.149-1.172 4.762-2.383 9.157-2.383 4.489 0 9.026 3.24 11.173 5.588l.184-.094zM720 63.01c-7.145 3.113-17.421 8.789-22.438 13.279-2.563-2.473-5.984-4.762-10.44-4.762-4.178 0-6.044 1.512-6.044 2.932 0 .881 1.739.742 1.739 2.014 0 .584-.503 1.281-1.282 1.281-.978 0-1.924-1.441-1.924-3.205 0-3.297 1.458-6.193 6.687-11.631l9.158-9.525c-3.781-1.934-9.296-4.344-12.363-5.68v-.455c.89-.256 1.557-1.145 1.557-2.2v-7.876c0-.864-.457-2.197-1.557-2.563v-.367c7.693-2.748 17.491-8.243 23.078-12.182 1.252 1.394 4.531 4.305 8.059 4.305 2.973 0 3.664-1.435 3.664-2.473 0-.59-1.1-.916-1.1-1.832 0-.782.421-1.099 1.008-1.099.877 0 1.649.807 1.649 2.473 0 4.945-4.754 11.266-12.182 11.266-4.888 0-7.876-2.198-10.165-5.404l-.183.091V41.67l6.775 3.298 3.022-3.206c3.171 2.006 9.779 5.553 13.28 7.051v.277c-.687.287-1.558 1.098-1.558 2.563v8.699c0 1.242.916 2.016 1.558 2.291v.367m-51.284-18.592c-2.564-3.572-7.51-10.44-10.349-14.653l-.276.092v21.156l10.625-6.595zm11.082-5.586-21.707 13.553v9.252c2.749 1.188 9.252 4.395 12.182 6.318l4.67-4.854c1.285-1.334.911-3.572 2.748-3.572.642 0 1.101.367 1.101 1.1 0 .779-.539 1.18-.917 1.555L663.677 76.29c-4.854-3.113-14.654-7.693-19.508-9.707v-.367c.785-.295 1.648-.824 1.648-2.84V37.642c0-2.107-.757-2.854-1.648-3.021v-.367c7.327-2.381 18.5-8.334 23.812-12.09 3.664 5.494 8.333 12.272 11.815 16.668zM528.867 65.94V19.416c-.55.039-1.542.092-2.106.092-3.147 0-8.609-1.191-12.181-2.199-10.623 1.924-22.987 10.888-22.987 27.75 0 14.461 10.287 23.719 24.91 23.719 4.947 0 9.328-1.031 12.364-2.838zm12.639-58.979c0 7.372-5.646 11.334-11.723 12.271v46.067c7.418-4.121 9.801-8.67 9.801-10.807 0-.465-.917-1.088-.917-1.926 0-.648.522-1.189 1.099-1.189.835 0 1.19.734 1.19 2.107 0 10.715-10.257 25.188-32.055 25.188-16.353 0-30.223-12.924-30.223-29.492 0-23.628 19.782-31.78 33.519-32.603-5.035-1.1-13.078-2.84-19.78-2.84-7.785 0-14.196 4.579-14.196 8.7 0 1.558 1.283 1.832 1.283 2.931 0 .606-.266 1.374-1.1 1.374-1.281 0-1.465-1.197-1.465-2.197 0-8.976 5.521-21.89 19.049-21.89 13.714 0 24.125 4.946 34.803 4.946 7.057 0 9.156-2.473 8.883-6.595l1.191.458c.274.642.641 2.747.641 5.497zM441.497 68.778V54.034c-1.74-.822-4.69-2.23-6.411-3.113l-14.195 14.652.091.094c2.15-1.172 4.763-2.383 9.159-2.383 4.487 0 9.026 3.24 11.173 5.588l.183-.094zm13.828-5.768c-7.143 3.113-17.421 8.789-22.438 13.279-2.563-2.473-5.985-4.762-10.44-4.762-4.178 0-6.045 1.512-6.045 2.932 0 .881 1.741.742 1.741 2.014 0 .584-.503 1.281-1.283 1.281-.977 0-1.924-1.441-1.924-3.205 0-3.297 1.46-6.193 6.688-11.631l9.158-9.525c-3.782-1.934-9.296-4.344-12.364-5.68v-.455c.89-.256 1.558-1.145 1.558-2.2v-7.876c0-.864-.459-2.197-1.558-2.563v-.367c7.692-2.748 17.493-8.243 23.079-12.182 1.252 1.394 4.531 4.305 8.06 4.305 2.972 0 3.663-1.435 3.663-2.473 0-.59-1.099-.916-1.099-1.832 0-.782.419-1.099 1.008-1.099.875 0 1.647.807 1.647 2.473 0 4.945-4.754 11.448-12.181 11.448-4.888 0-7.876-2.381-10.166-5.587l-.183.091V41.67l6.776 3.298 3.022-3.206c3.172 2.006 9.778 5.553 13.279 7.051v.277c-.686.287-1.557 1.098-1.557 2.563v8.699c0 1.242.915 2.016 1.557 2.291v.367m-51.284-18.592c-2.563-3.572-7.51-10.44-10.349-14.653l-.273.092v21.156l10.622-6.595zm11.082-5.586-21.704 13.553v9.252c2.748 1.188 9.249 4.395 12.179 6.318l4.671-4.854c1.284-1.334.91-3.572 2.748-3.572.644 0 1.099.367 1.099 1.1 0 .779-.537 1.18-.916 1.555L399.003 76.29c-4.855-3.113-14.653-7.693-19.507-9.707v-.367c.783-.295 1.647-.824 1.647-2.84V37.642c0-2.107-.757-2.854-1.647-3.021v-.367c7.326-2.381 18.501-8.334 23.811-12.09 3.663 5.494 8.334 12.272 11.814 16.668zm-73.083 5.586c-2.564-3.572-7.51-10.44-10.348-14.653l-.276.092v21.156l10.624-6.595zm11.081-5.586-21.705 13.553v9.252c2.748 1.188 9.25 4.395 12.181 6.318l4.671-4.854c1.283-1.334.91-3.572 2.747-3.572.641 0 1.099.367 1.099 1.1 0 .779-.538 1.18-.915 1.555L337.001 76.29c-4.854-3.113-14.651-7.693-19.506-9.707v-.367c.784-.295 1.647-.824 1.647-2.84V37.642c0-2.107-.758-2.854-1.647-3.021v-.367c7.326-2.381 18.499-8.334 23.81-12.09 3.665 5.494 8.335 12.272 11.814 16.668zm-55.956 29.215V38.648c-3.572-2.015-9.433-6.045-13.371-9.433l-.183.091v32.145c3.57 1.65 9.891 5.404 12.547 7.42l1.007-.824zm17.218 4.121c-.294 11.629-6.081 19.691-16.944 19.691-8.497 0-14.717-4.396-22.437-4.396-4.496 0-6.972 1.457-8.243 3.021l-.549-.365c.458-8.426 6.391-13.098 14.012-13.098 8.402 0 14.554 5.404 23.446 5.404 5.678 0 8.608-3.023 9.158-6.045l-.091-.184c-1.191.732-2.748 1.648-5.039 1.648-4.58 0-9.524-3.205-10.348-8.791-2.187 1.523-7.099 5.348-9.25 7.234-5.367-3.467-14.016-7.832-18.225-9.707v-.367c.878-.289 1.465-1.406 1.465-2.473V37.55c0-1.562-.577-2.736-1.648-2.93v-.367c7.784-2.839 17.767-8.06 23.171-12.272 4.685 3.706 13.212 8.942 18.225 11.814v.458c-1.099.458-1.65 1.19-1.65 3.663v28.299c0 3.633.306 6.135 2.932 6.135.417 0 1.007-.365 1.374-.822l.641.64zM191.11 46.159l-9.433-28.941-10.348 28.941h19.781zm27.109 19.414L206.588 76.29c-3.481-2.473-6.503-4.488-10.899-7.234v-.459c.997-.363 1.546-1.383 1.557-2.564.006-.52-.1-1.102-.275-1.648l-3.572-11.172h-24.635l-3.297 9.34c5.09 0 8.51.971 10.99 2.014l1.924-3.572 1.189.645-7.967 14.744c-3.333-1.896-7.095-3.391-11.356-3.391-5.025 0-8.77 1.373-10.624 3.117-.371.348-.951.215-.732-.551 2.014-7.053 7.515-12.418 15.294-12.914l17.034-47.166c-2.008-5.842-4.305-7.144-8.608-7.144-4.032 0-7.968 1.831-7.968 6.777 0 2.289 2.198 2.084 2.198 3.755 0 .584-.503 1.282-1.282 1.282-1.465 0-2.473-2.015-2.473-5.862 0-8.7 6.686-13.828 13.921-13.828 6.593 0 9.157 2.563 11.172 5.312.641-2.563 3.175-3.807 5.129-4.122l.275.367c-1.222 1.515-1.924 2.839-1.924 4.762 0 1 .73 3.225 1.008 4.03l18.5 53.577 3.572 2.381 2.564-2.289.916 1.096zm-94.308 3.205V54.034c-1.74-.822-4.689-2.23-6.41-3.113l-14.195 14.652.091.094c2.15-1.172 4.762-2.383 9.159-2.383 4.487 0 9.025 3.24 11.172 5.588l.183-.094zm13.829-5.768c-7.143 3.113-17.421 8.789-22.437 13.279-2.564-2.473-5.985-4.762-10.44-4.762-4.178 0-6.045 1.512-6.045 2.932 0 .881 1.74.742 1.74 2.014 0 .584-.503 1.281-1.282 1.281-.978 0-1.923-1.441-1.923-3.205 0-3.297 1.457-6.193 6.685-11.631l9.159-9.525c-3.782-1.934-9.297-4.344-12.364-5.68v-.455c.89-.256 1.557-1.145 1.557-2.2v-7.876c0-.864-.458-2.197-1.557-2.563v-.367c7.693-2.748 17.492-8.243 23.078-12.182 1.253 1.394 4.533 4.305 8.06 4.305 2.971 0 3.663-1.435 3.663-2.473 0-.59-1.099-.916-1.099-1.832 0-.782.421-1.099 1.007-1.099.877 0 1.649.807 1.649 2.473 0 4.945-4.754 11.448-12.181 11.448-4.888 0-7.875-2.381-10.165-5.587l-.183.091V41.67l6.776 3.298 3.023-3.206c3.171 2.006 9.778 5.553 13.279 7.051v.277c-.686.287-1.557 1.098-1.557 2.563v8.699c0 1.242.916 2.016 1.557 2.291v.367zm-55.956 6.045V38.648c-4.213-2.29-10.441-6.869-13.372-9.433l-.183.091v30.772c4.03 2.199 10.074 6.229 13.372 9.066l.183-.089zm13.92-6.045c-6.126 2.504-17.95 8.791-23.079 13.279-5.403-3.939-13.302-9.123-18.316-11.998v-.275c1.282-.457 1.648-1.465 1.648-3.023V37.916c0-2.125-.55-2.931-1.648-3.296v-.367c8.425-3.114 16.393-7.511 23.17-12.182 4.671 3.48 12.822 8.609 18.225 11.814v.367c-.977.392-1.648 1.374-1.648 2.93v22.896c0 1.648.641 2.289 1.648 2.564v.368zm-63.559-3.113V16.942c-6.009-.656-9.521-4.947-11.539-7.326l-5.769 4.67c.031 6.518 1.889 12.207 4.121 17.402 2.04 4.749 4.304 10.942 4.304 15.203 0 7.016-3.847 11.447-13.096 20.148l.274.275c5.496-4.122 14.322-7.292 21.705-7.417zm21.34 1.096-8.426 15.57c-4.705-3.279-12.275-5.311-18.683-5.311-12.638 0-21.339 2.289-25.826 5.129L0 75.739c4.008-3.508 10.715-9.143 10.715-21.98 0-5.408-2.178-11.539-3.755-15.568-1.827-4.669-3.205-7.038-3.205-13.555 0-11.344 6.079-17.781 15.66-22.621l.733.916c-3.306 2.75-4.822 6.311-5.311 9.891L30.131 0c3.921 5.509 7.625 7.602 12.455 7.602 3.964 0 5.129-1.719 5.129-3.115 0-1.007-1.374-1.21-1.374-2.196 0-.937.645-1.191 1.19-1.191 1.216 0 1.557 1.568 1.557 2.747 0 7.726-6.136 13.463-13.005 13.463-1.19 0-2.264.041-3.022-.091v42.679c5.953 0 12.639 2.014 17.126 4.303l2.107-3.754 1.191.546zm589.86 5.222c-2.93 2.473-8.517 7.418-11.265 10.074-2.564-2.289-7.876-6.504-11.172-8.885v-.364c.951-.322 1.648-1.232 1.648-3.389V38.19c-2.656-1.923-7.877-5.22-10.716-7.052l-2.014 1.74v32.053l4.486 3.297s-6.228 5.404-8.976 8.061c-2.472-2.381-6.135-5.131-9.432-7.602v-.365c.952-.322 1.647-1.234 1.647-3.391V38.19c-2.656-1.923-7.877-5.22-10.715-7.052l-2.473 2.106v31.687l4.487 3.297s-6.052 5.061-8.975 7.969c-2.748-2.473-5.772-4.707-9.435-7.51v-.273c1.03-.422 1.649-1.654 1.649-3.115V34.62l-3.938-3.481-2.474 2.106-.916-1.008c2.748-2.29 7.327-6.318 11.267-10.074l8.333 7.51v2.106l11.355-9.616c3.571 2.564 14.105 9.251 14.105 9.251l10.897-9.251c3.479 2.748 11.446 7.693 15.843 10.258v.365c-1.463.394-1.647 2.291-1.647 3.299v27.566l5.036 3.754 2.382-2.197 1.013 1.007"/>
      <path d="M565.134 12.181c-2.93 4.121-5.312 6.044-10.075 6.044-3.205 0-5.677-1.74-8.24-4.854l-2.291 2.107-.916-1.099 11.174-9.983c3.205 6.503 7.052 7.51 10.164 7.418l.184.367zm2.747 54.034c-3.205 2.748-8.341 7.166-11.265 10.074-2.747-2.473-7.419-6.08-11.08-8.885v-.273c1.027-.42 1.646-1.652 1.646-3.115V34.62l-3.937-3.481-2.473 2.106-.917-1.008c2.749-2.29 7.326-6.318 11.264-10.074l9.983 8.885v.366c-1.19.365-1.648 1.109-1.648 3.847v28.39l5.037 3.664 2.382-2.107 1.008 1.007zm-190.584 0c-3.204 2.748-8.34 7.166-11.263 10.074-2.748-2.473-7.422-6.08-11.083-8.885v-.273c1.03-.42 1.649-1.652 1.649-3.115V16.484l-3.938-3.479-2.474 2.106-.915-1.008c2.748-2.29 6.686-6.319 10.624-10.074l10.624 8.884v.366c-1.19.366-1.648 1.111-1.648 3.847v46.525l5.037 3.664 2.382-2.107 1.005 1.007zm-109.716 0c-2.93 2.473-8.517 7.418-11.264 10.074-2.565-2.289-7.784-6.504-11.081-8.885v-.364c.952-.322 1.648-1.232 1.648-3.389V38.19c-2.655-1.923-7.876-5.22-10.715-7.052l-2.473 2.106v31.687l4.488 3.297s-6.051 5.061-8.975 7.969c-2.748-2.473-5.772-4.707-9.433-7.51v-.273c1.029-.422 1.648-1.654 1.648-3.115V34.62l-3.938-3.481-2.473 2.106-.916-1.008c2.748-2.29 7.327-6.318 11.265-10.074l8.334 7.51v2.106l11.357-9.616c3.48 2.748 11.355 7.693 15.751 10.258v.365c-1.463.394-1.648 2.291-1.648 3.299v27.566l5.037 3.754 2.381-2.197 1.007 1.007"/>
      <path fill="#FFF" d="M714.963 31.048v-.367c-1.273.684-4.039 1.374-5.313 1.374-5.251 0-7.877-2.015-10.166-4.854l-1.831 1.19c2.473 3.206 4.762 5.312 10.074 5.312 3.024-.001 6.044-1.648 7.236-2.655zm-17.675 20.513c-3.022-1.557-8.06-3.754-10.716-4.762v-.184c.685-.391.824-1.191.824-2.289V37c0-1.648-.565-2.272-1.19-3.114l-1.649.642c.56.686 1.008 1.395 1.008 2.106v8.243c0 1.19-.273 1.922-1.008 2.381v.182c2.932 1.191 7.786 3.297 11.632 5.313l1.099-1.192m11.63 16.121v-15.48c-1.615-.664-5.403-2.381-7.145-3.389l-1.28 1.375c1.829.824 4.762 2.289 6.594 3.205v15.295l1.831-1.006zm-37.548-24.73c-2.839-3.754-8.06-11.173-10.9-15.294l-1.739.916c3.023 4.396 8.243 11.813 10.991 15.386l1.648-1.008zm27.656 30.773c-2.288-2.566-6.594-4.488-9.707-4.488-2.838 0-4.396.824-5.22 1.467v.365c1.527-.383 2.198-.365 3.022-.365 4.763 0 7.968 1.924 10.44 4.305l1.465-1.284m-34.343.365c-5.219-3.387-13.644-7.143-17.033-8.424v-.184c.686-.391.916-1.412.916-3.299v-25c0-2.014-.642-2.655-1.282-3.113l-1.558.551c.574.572 1.008 1.189 1.008 2.838V64.11c0 1.041-.365 1.83-1.008 2.105v.182c4.123 1.65 13.28 5.953 17.859 8.885l1.098-1.192zm-31.322-.181c-2.195-2.014-6.867-5.494-8.974-6.961v-.184c.685-.391.915-1.502.915-3.389V36.358c-3.204-2.105-7.783-5.128-10.989-7.327l-1.647 1.467c3.112 1.923 8.059 5.129 10.807 7.052v25.919c0 2.287-.184 3.295-1.191 3.662v.184c2.291 1.74 7.35 5.467 9.707 7.967l1.372-1.373zm-26.74-.092c-2.198-2.016-5.037-4.213-7.235-5.588v-.182c.684-.393.916-1.502.916-3.389v-28.3c-3.206-2.105-7.785-5.128-10.989-7.327l-1.649 1.467c3.113 1.923 8.059 5.129 10.807 7.052v27.2c0 2.289-.183 3.297-1.19 3.664v.182c2.289 1.648 5.678 4.213 8.059 6.502l1.281-1.281zm-46.799-57.515v-.366c-4.764 0-7.145-1.099-10.44-4.854l-1.74 1.557c2.197 2.656 4.402 4.67 7.784 4.67 2.105 0 3.663-.641 4.396-1.007m21.339 57.515c-2.106-1.922-5.037-4.121-7.235-5.588v-.182c.668-.48.916-1.373.916-2.748V33.245l-4.58-4.214-1.465 1.375 4.214 3.755v31.23c0 1.465-.121 2.438-1.1 3.023v.182c2.654 1.924 5.86 4.58 7.968 6.502l1.282-1.281zm-23.264.092c-2.105-1.924-6.685-5.494-8.883-6.961v-.184c.669-.479.917-1.373.917-2.748V33.245l-4.488-4.121-1.465 1.374 4.121 3.663V64.11c0 1.463-.121 2.438-1.099 3.021v.184c2.655 1.922 7.509 5.953 9.615 7.875l1.282-1.281zm-20.054-59.53-.184-.549c-1.831 1.281-4.396 2.654-9.708 2.654-10.664 0-18.774-5.86-34.344-5.86-3.48 0-6.41 1.739-7.326 2.655l.091.458c2.29-.824 3.497-1.008 6.229-1.008 16.027 0 24.871 5.679 34.067 5.679 6.412 0 9.708-2.564 11.175-4.029m-10.075 58.705-.183-.549c-3.424 1.564-9.067 2.838-17.676 2.838-15.203 0-27.476-11.473-27.476-27.475 0-10.076 3.927-16.97 6.961-20.881l-.458-.183c-3.114 3.297-8.884 9.341-8.884 22.07 0 16.439 13.654 28.576 29.032 28.576 9.8.001 16.212-3.021 18.684-4.396zm-77.479-42.036v-.367c-1.272.684-4.039 1.557-5.313 1.557-5.251 0-7.876-2.197-10.166-5.037l-1.832 1.19c2.474 3.206 4.764 5.495 10.075 5.495 3.024 0 6.046-1.831 7.236-2.838zm-17.674 20.513c-3.023-1.557-8.063-3.754-10.718-4.762v-.184c.686-.391.824-1.191.824-2.289V37c0-1.648-.564-2.272-1.19-3.114l-1.647.642c.559.686 1.007 1.395 1.007 2.106v8.243c0 1.19-.274 1.922-1.007 2.381v.182c2.93 1.191 7.784 3.297 11.631 5.313l1.1-1.192m11.63 16.121v-15.48c-1.615-.664-5.404-2.381-7.145-3.389l-1.282 1.375c1.832.824 4.763 2.289 6.595 3.205v15.295l1.832-1.006zm-37.55-24.73c-2.84-3.754-8.059-11.173-10.897-15.294l-1.74.916c3.022 4.396 8.24 11.813 10.989 15.386l1.648-1.008zm27.659 30.773c-2.29-2.566-6.594-4.488-9.708-4.488-2.837 0-4.396.824-5.22 1.467v.365c1.527-.383 2.198-.365 3.021-.365 4.764 0 7.969 1.924 10.44 4.305l1.467-1.284M400.102 74c-5.22-3.023-13.736-7.053-17.126-8.334v-.184c.686-.391.915-1.412.915-3.299v-25c0-2.014-.641-2.655-1.281-3.113l-1.557.551c.572.572 1.006 1.189 1.006 2.838V64.11c0 1.041-.364 1.83-1.006 2.105v.182c4.121 1.65 13.371 6.139 17.858 8.885L400.102 74zm-32.788-.091c-2.106-1.924-6.684-5.494-8.883-6.961v-.184c.667-.479.915-1.373.915-2.748V15.111l-4.579-4.213-1.465 1.373 4.213 3.755V64.11c0 1.463-.12 2.438-1.098 3.021v.184c2.655 1.922 7.509 5.953 9.616 7.875l1.281-1.281zm-22.621-30.957c-2.838-3.754-8.058-11.173-10.897-15.294l-1.741.916c3.022 4.396 8.243 11.813 10.991 15.386l1.647-1.008M338.099 74c-5.218-2.932-13.736-7.145-17.124-8.428v-.182c.684-.391.916-1.41.916-3.297v-24.91c0-2.014-.641-2.655-1.283-3.113l-1.556.551c.572.572 1.007 1.189 1.007 2.838V64.11c0 1.041-.367 1.83-1.007 2.105v.182c4.121 1.65 13.278 5.953 17.856 8.885L338.099 74zm-25.733 1.557v-.275c-.573.098-1.933.457-3.938.457-4.171 0-8.517-3.148-8.517-8.975V36.816c-4.122-2.105-10.35-6.318-13.83-9.433l-1.74 1.099c3.297 2.839 9.342 7.235 13.738 9.525v29.581c0 6.111 5.128 9.252 9.615 9.252 2.749 0 4.194-.998 4.672-1.283m-22.805-1.648c-4.213-2.473-10.806-6.137-16.118-8.609v-.184c.549-.551.641-1.281.641-2.932V37.458c0-1.74-.458-2.838-1.282-3.572l-1.649.642c.859.475 1.099 1.647 1.099 3.114v26.193c0 1.041-.129 1.654-.824 2.197v.184c4.488 1.922 11.723 6.135 16.578 9.066l1.555-1.373zm19.142 12.547v-.549c-2.006 1.623-4.854 3.295-10.349 3.295-8.976 0-15.506-4.395-21.523-4.395-3.938 0-5.678 1.191-6.868 2.381v.275c1.19-.457 2.839-.824 5.769-.824 6.869 0 14.069 4.486 21.614 4.486 6.32 0 9.983-3.113 11.357-4.669zM257.69 73.725c-2.472-2.016-6.867-5.588-8.974-7.051v-.184c.684-.391.916-1.502.916-3.389V36.358c-3.205-2.105-7.785-5.128-10.99-7.327l-1.649 1.467c3.114 1.923 8.06 5.129 10.807 7.052v25.919c0 2.287-.183 3.295-1.19 3.662v.184c2.289 1.74 6.959 5.313 9.707 7.783l1.373-1.373zm-27.199.092c-2.107-1.922-5.037-4.121-7.235-5.588v-.182c.668-.48.916-1.373.916-2.748V33.245l-4.58-4.214-1.465 1.375 4.213 3.755v31.23c0 1.465-.12 2.438-1.099 3.023v.182c2.656 1.924 5.861 4.58 7.968 6.502l1.282-1.281zM194.59 46.159l-10.532-32.421c-1.873-5.768-4.487-8.06-9.341-7.968-2.747.051-5.095.967-6.136 1.74l-.091.64c.915-.458 2.656-.916 4.396-.916 4.945 0 7.4 1.655 9.523 8.243l9.891 30.681h2.29m13.829 27.2c-2.106-1.557-6.411-4.395-8.609-5.676.367-.367.825-1.008.825-1.834 0-.531-.257-1.572-.458-2.197l-4.213-13.098H169.68l-.549 1.74h25.093l3.938 11.906c.243.734.275 1.373.275 1.924 0 1.824-1.099 2.473-1.099 2.473 2.289 1.283 6.502 4.395 9.158 6.502l1.923-1.74m-36.083-.367c-2.839-2.014-6.502-2.93-10.715-2.93-3.206 0-6.045 1.648-6.961 2.289l.092.367c.955-.191 3.205-.732 5.587-.732 4.121 0 7.326 1.006 10.807 3.113l1.19-2.107zM132.703 31.23v-.367c-1.272.685-4.039 1.374-5.312 1.374-5.25 0-7.875-2.197-10.165-5.037l-1.831 1.19c2.473 3.206 4.76 5.495 10.073 5.495 3.024.001 6.045-1.648 7.235-2.655zm-17.675 20.331c-3.022-1.557-8.059-3.754-10.715-4.762v-.184c.684-.391.824-1.191.824-2.289V37c0-1.648-.565-2.272-1.19-3.114l-1.649.642c.558.686 1.008 1.395 1.008 2.106v8.243c0 1.19-.275 1.922-1.008 2.381v.182c2.931 1.191 7.785 3.297 11.631 5.313l1.099-1.192m11.631 16.121v-15.48c-1.615-.664-5.404-2.381-7.143-3.389l-1.282 1.375c1.831.824 4.761 2.289 6.593 3.205v15.295l1.832-1.006zm-9.89 6.043c-2.29-2.566-6.594-4.488-9.708-4.488-2.838 0-4.396.824-5.221 1.467v.365c1.528-.383 2.198-.365 3.023-.365 4.762 0 7.967 1.924 10.44 4.305l1.466-1.284zm-32.238-6.228v-30.68c-4.488-2.196-10.807-6.776-13.829-9.341l-1.74 1.007c2.656 2.29 9.067 7.145 13.737 9.525v30.497l1.832-1.008zM43.227 13.921l-.092-.642c-1.275.619-3.63 1.74-5.769 1.74-7.568 0-12.343-5.442-14.104-7.692l-1.74 1.465c2.861 3.544 6.927 7.602 14.195 7.602 3.478 0 6.238-1.593 7.51-2.473m30.68 60.261c-4.191-3.205-11.814-8.15-16.027-10.439v-.184c.573-.477.825-1.303.825-2.84V37.274c0-1.575-.458-2.747-1.282-3.389l-1.649.642c.824.458 1.099 1.73 1.099 3.022v24.177c0 1.008-.354 1.941-1.007 2.289v.185c5.323 3.031 12.53 7.74 16.759 10.99l1.282-1.008zM13.921 52.477c0-10.375-7.327-18.426-7.327-29.581 0-5.022.61-7.182 1.282-9.066l-.458.091c-1.271 2.445-2.381 6.422-2.381 10.715 0 11.361 6.777 17.582 6.777 28.757 0 3.201-.298 5.875-1.282 8.426h.55c1.947-3.346 2.839-5.635 2.839-9.342m31.871 20.607c-2.961-2.102-10.709-4.762-17.585-4.762-10.914 0-17.108 2.4-20.24 3.479v.549c3.229-.781 8.653-2.105 18.867-2.105 7.831 0 14.543 2.914 17.859 4.854l1.099-2.015"/>
      <path d="M524.653 23.445c0 .642-.545.916-1.008.916-.788 0-1.464-1.557-3.662-1.557-3.233 0-5.954 2.992-5.954 6.227 0 8.519 8.426 11.993 8.426 21.706 0 8.146-7.974 12.85-16.21 13.922l-1.557-1.1c4.514-.586 6.687-2.113 6.687-7.602 0-7.418-7.693-13.438-7.693-22.163 0-7.062 6.594-12.548 15.661-12.548 1.764 0 3.53.529 4.487 1.008.549.274.823.642.823 1.191"/>
      <path fill="#FFF" d="M514.854 54.493c0-7.637-7.968-13.829-7.968-22.163 0-2.29.415-4.327 1.466-6.046l-.458-.091c-1.008 1.007-2.931 3.663-2.931 7.052 0 8.594 7.601 13.755 7.601 22.253 0 2.84-.731 4.764-2.014 6.412l.549.184c1.833-1.375 3.755-3.297 3.755-7.601"/>
    </g>
  </switch>
</svg>